<?xml version="1.0"?>
<svg width="127" height="83" xmlns="http://www.w3.org/2000/svg" xmlns:svg="http://www.w3.org/2000/svg">
 <!-- Created with SVG-edit - https://github.com/SVG-Edit/svgedit-->
 <title>Logo_Rene</title>
 <g class="layer">
  <title>Layer 1</title>
  <text fill="#0e19f2" font-family="serif" font-size="24" id="svg_1" stroke="#000000" stroke-dasharray="null" stroke-linecap="null" stroke-linejoin="null" stroke-width="0" text-anchor="middle" transform="matrix(3.7386 0 0 2.85672 -196.98 -263.401)" x="63.1" xml:space="preserve" y="113.53234">R</text>
  <text fill="#f70707" font-family="serif" font-size="24" id="svg_2" stroke="#000000" stroke-dasharray="null" stroke-linecap="null" stroke-linejoin="null" stroke-width="0" text-anchor="middle" transform="matrix(3.7386 0 0 2.85672 -177.23 -243.401)" x="70.18821" xml:space="preserve" y="106.52755">Q</text>
  <ellipse cx="73.125" cy="31.23854" fill="#000000" id="svg_4" rx="2.5" ry="3.25" stroke="#000000" stroke-dasharray="null" stroke-linecap="square"/>
  <ellipse cx="88.625" cy="31.23854" fill="#000000" id="svg_5" rx="2.5" ry="3.25" stroke="#000000" stroke-dasharray="null" stroke-linecap="square"/>
  <path d="m72.07526,42.98854c0,0.53311 0,1.15508 0,1.79197c0,0.63242 -0.07577,1.29454 0.41621,1.79316c0.50977,0.51664 1.3382,0.81939 2.07136,1.16038c0.80156,0.3728 1.36242,0.81034 2.06323,1.11877c0.79081,0.34803 1.78966,0.35876 2.63461,0.53678c0.86251,0.18172 1.81773,0.33689 2.7525,0.35171c0.96731,0.01533 1.90471,0 2.86281,0c0.92855,0 1.8348,0 2.8145,0c0.96445,0 1.84302,0 2.85394,0c0.91158,0 1.9276,0.05035 2.68789,-0.26656c0.79422,-0.33105 1.33906,-0.80499 1.78872,-1.35056c0.4366,-0.52973 0.54253,-1.16208 0.79838,-1.77704c0.23284,-0.55968 0.36016,-1.17782 0.73948,-1.75927l0.26613,-0.59484" fill="none" id="svg_6" stroke="#000000" stroke-dasharray="null" stroke-linecap="square" stroke-linejoin="null" stroke-width="null"/>
  <path d="m1,74.51354c0.88667,0 1.91096,-0.00485 2.46267,-0.036c0.73648,-0.04158 2.28898,-0.18422 2.94267,-0.25067c0.722,-0.07339 1.51081,-0.15874 2.3655,-0.255c0.91998,-0.10362 1.90388,-0.21822 2.9505,-0.345c2.27914,-0.27611 3.50826,-0.43518 4.796,-0.59734c1.3436,-0.16919 2.74099,-0.34419 4.191,-0.51599c1.49931,-0.17764 3.0465,-0.35536 4.641,-0.51601c3.3157,-0.33405 5.03524,-0.468 6.784,-0.59734c1.76792,-0.13075 3.54639,-0.24472 5.325,-0.345c1.76807,-0.09969 3.5164,-0.18629 5.235,-0.25499c3.3062,-0.13214 4.87626,-0.16855 6.384,-0.20134c1.4436,-0.0314 2.82131,-0.05154 4.131,-0.0645c1.23965,-0.01225 2.40733,-0.01755 3.50099,-0.0195c1.95734,-0.00351 2.81784,-0.00233 3.60133,0c0.7095,0.00211 1.34808,0.00586 1.9185,0.0195c0.50558,0.01208 0.95004,0.02467 1.33351,0.0645c0.60619,0.06296 0.83498,0.12347 1.01067,0.20134c0.14586,0.06465 0.25769,0.15216 0.32249,0.25499c0.06219,0.09871 0.08807,0.21936 0.0975,0.345c0.02097,0.2793 0.00667,0.43484 0.00667,0.59868c0,0.17183 0,0.35066 0,0.53549c0,0.18983 0,0.38367 0,0.58051c0,0.39867 0,0.59866 0,0.79866c0,0.2 0,0.40001 0,0.60001c0,0.2 0,0.39999 0,0.59999c0,0.40001 0.04485,0.60225 -0.01067,1.17867c-0.08644,0.89745 -0.7666,1.40526 -1.18935,2.35735c-0.24335,0.54807 -0.48335,1.46069 -0.89949,2.37799c-0.22235,0.49011 0.37033,0.48601 1.08466,0.48601c1.6815,0 2.43117,0.00066 3.27884,-0.00134c0.94366,-0.00223 1.98135,-0.0074 3.11101,-0.0195c1.2197,-0.01308 2.52744,-0.03175 3.92099,-0.0645c3.03758,-0.07137 4.67586,-0.13184 6.384,-0.20267c1.76855,-0.07333 3.58705,-0.16281 5.44501,-0.27449c1.88873,-0.11354 3.79782,-0.24245 5.715,-0.4095c3.82918,-0.33365 5.7178,-0.56183 7.58667,-0.79868c1.85117,-0.23459 3.68095,-0.49492 5.48999,-0.771c1.79099,-0.27332 3.56084,-0.56238 5.31,-0.86099c3.44168,-0.58757 5.13005,-0.89522 6.79733,-1.19734c1.64406,-0.29791 3.26134,-0.59999 4.85101,-0.89999l1.55966,-0.3l1.52766,-0.3l1.49367,-0.3" fill="#ffffff" id="svg_3" stroke="#0a0909" stroke-dasharray="null" stroke-linejoin="round" stroke-width="2"/>
 </g>
</svg>